<svg width="102" height="102" viewBox="0 0 102 102" fill="none" xmlns="http://www.w3.org/2000/svg">
<path d="M7.69871 26C14.3764 14.4338 25.1586 6.16047 38.059 2.70355C50.9595 -0.752834 64.4338 1.02102 76 7.69875C84.1898 12.4272 90.8375 19.3303 95.2241 27.6617C99.489 35.7622 101.458 44.8672 100.917 53.9925L91.5585 53.4381C91.9981 46.0197 90.397 38.6166 86.9287 32.0294C83.3677 25.2661 77.9677 19.6601 71.3125 15.8177C51.913 4.61745 27.018 11.288 15.8177 30.6875C4.6174 50.087 11.288 74.982 30.6875 86.1823C37.3427 90.0247 44.8975 91.8982 52.5352 91.6007C59.9742 91.3106 67.1858 88.9955 73.3906 84.9058L78.55 92.7335C70.9176 97.7643 62.048 100.612 52.9004 100.969C43.492 101.335 34.1898 99.0297 26 94.3013C14.4338 87.6236 6.16043 76.8413 2.70351 63.941C-0.752875 51.0405 1.02097 37.5662 7.69871 26Z" fill="#7A8DFD"/>
</svg>
