<svg width="34" height="34" viewBox="0 0 34 34" fill="none" xmlns="http://www.w3.org/2000/svg">
<path d="M33.5793 4.46567C29.9019 1.679 24.2431 0.0153198 18.4416 0.0153198C11.2658 0.0153198 5.4185 2.52069 2.39921 6.88903C0.981168 8.94065 0.196844 11.3701 0.0680823 14.1098C-0.0466013 16.5494 0.363059 19.2472 1.28611 22.1498C4.43622 12.7074 13.2333 5.31248 23.375 5.31248C23.375 5.31248 13.8847 7.81042 7.91816 15.5454C7.91444 15.55 7.83535 15.648 7.69856 15.8342C6.50059 17.4372 5.45609 19.2595 4.67448 21.3236C3.35068 24.4723 2.12502 28.7926 2.12502 34H6.37501C6.37501 34 5.72988 29.9418 6.85181 25.2745C8.70753 25.5254 10.3666 25.6499 11.8606 25.6499C15.7678 25.6499 18.5467 24.8046 20.6059 22.9896C22.4509 21.3633 23.4679 19.1783 24.5446 16.865C26.1889 13.332 28.0526 9.3276 33.4647 6.23499C33.7745 6.05796 33.9748 5.73721 33.9978 5.38114C34.0209 5.02507 33.8637 4.68122 33.5793 4.46567Z" fill="#7A8DFD"/>
</svg>
