<svg width="154" height="154" viewBox="0 0 154 154" fill="none" xmlns="http://www.w3.org/2000/svg">
<path d="M152.094 20.2269C135.438 7.60493 109.807 0.069458 83.5296 0.069458C51.0272 0.069458 24.5425 11.4173 10.8669 31.2033C4.44404 40.496 0.891512 51.4997 0.308297 63.9094C-0.211152 74.9592 1.64437 87.1787 5.82523 100.326C20.0934 57.5572 59.9388 24.0625 105.875 24.0625C105.875 24.0625 62.8894 35.3767 35.8645 70.4117C35.8477 70.4324 35.4895 70.8764 34.8699 71.7198C29.4438 78.9803 24.7128 87.2344 21.1726 96.5835C15.1765 110.845 9.62499 130.414 9.62499 154H28.875C28.875 154 25.9529 135.619 31.0346 114.479C39.4399 115.615 46.9547 116.179 53.7213 116.179C71.419 116.179 84.0055 112.35 93.3324 104.129C101.689 96.7634 106.296 86.8665 111.172 76.3888C118.62 60.386 127.062 42.2486 151.575 28.2409C152.979 27.439 153.886 25.9863 153.99 24.3735C154.094 22.7607 153.382 21.2032 152.094 20.2269Z" fill="#7A8DFD"/>
</svg>
